<svg width="145" height="55" viewBox="0 0 145 55" fill="none" xmlns="http://www.w3.org/2000/svg">
<path d="M85.5358 0.850346H75.0052C70.7375 0.850346 67.1349 3.89868 66.359 8.11093L60.0961 43.5825C59.9852 44.1921 60.4286 44.691 61.0383 44.691H67.4675C68.1326 44.691 68.6314 44.2476 68.7422 43.5825L74.3401 11.8244C74.6172 10.3833 75.892 9.27484 77.3884 9.27484H84.0948C84.7599 9.27484 85.2587 8.83144 85.3695 8.16635L86.478 1.90341C86.5889 1.29374 86.1455 0.794922 85.5358 0.794922V0.850346Z" fill="white"/>
<path d="M138.411 0.850346H127.326C123.058 0.850346 119.455 3.89868 118.68 8.11093L113.58 36.987C112.86 41.0329 115.964 44.691 120.065 44.691H131.15C135.418 44.691 139.02 41.6426 139.796 37.4304L144.895 8.55432C145.616 4.50835 142.512 0.850346 138.411 0.850346ZM135.806 9.99535L131.372 35.2134C131.095 36.6544 129.82 37.7629 128.323 37.7629H124.222C123.113 37.7629 122.282 36.7653 122.504 35.7122L126.938 10.4942C127.215 9.05314 128.49 7.94465 129.986 7.94465H134.087C135.196 7.94465 136.027 8.94229 135.806 9.99535Z" fill="white"/>
<path d="M107.927 0.850346H96.8424C92.5747 0.850346 88.9721 3.89868 88.1962 8.11093L84.2056 30.6132C83.4851 34.6592 86.5889 38.3172 90.6902 38.3172H95.9556C98.3388 38.3172 100.777 36.599 101.055 35.158L100.556 38.3172L99.4473 44.691C99.1702 46.132 97.8954 47.2405 96.399 47.2405H92.741C91.6325 47.2405 90.8011 46.2428 91.0228 45.1898L91.4108 43.1391C91.5216 42.5294 91.0782 42.0306 90.4686 42.0306H84.261C83.5959 42.0306 83.0971 42.474 82.9863 43.1391L82.432 46.3537C81.7115 50.3997 84.8153 54.0577 88.9167 54.0577H99.1702C103.438 54.0577 107.04 51.0093 107.816 46.7971L114.578 8.60975C115.299 4.56377 112.195 0.90577 108.093 0.90577L107.927 0.850346ZM99.2256 31.1674H95.1242C94.0157 31.1674 93.1843 30.1698 93.406 29.1167L96.6761 10.4942C96.9532 9.05314 98.228 7.94465 99.7244 7.94465H103.826C104.934 7.94465 105.766 8.94229 105.544 9.99535L102.274 28.6179C101.997 30.0589 100.722 31.1674 99.2256 31.1674Z" fill="white"/>
<path d="M25.4559 1.01662H14.371C10.1033 1.01662 6.50077 4.06495 5.72483 8.2772L0.625792 37.1533C-0.0947236 41.1992 3.00904 44.8572 7.11043 44.8572H18.2507C22.5184 44.8572 26.121 41.8089 26.8969 37.5967L27.174 35.9893L28.3934 29.2276L28.6705 27.6203C28.7813 27.0106 28.3379 26.5118 27.7283 26.5118H21.1882C20.5231 26.5118 20.0243 26.9552 19.9134 27.6203L18.5278 35.3797C18.2507 36.8207 16.976 37.9292 15.4795 37.9292H11.3781C10.2696 37.9292 9.43825 36.9316 9.65995 35.8785L14.0939 10.6604C14.371 9.21941 15.6458 8.11093 17.1422 8.11093H21.2436C22.3521 8.11093 23.1835 9.10856 22.9618 10.1616L21.6316 17.5885C21.5207 18.1981 21.9641 18.697 22.5738 18.697H29.1139C29.779 18.697 30.2778 18.2536 30.3886 17.5885L31.9405 8.66517C32.661 4.6192 29.5573 0.961195 25.4559 0.961195V1.01662Z" fill="white"/>
<path d="M55.6067 1.01662H45.6303C41.3626 1.01662 37.7601 4.06495 36.9841 8.2772L36.0973 13.21C35.9865 13.8196 36.4299 14.3184 37.0395 14.3184H43.0808C43.7459 14.3184 44.2447 13.8751 44.3556 13.21L44.799 10.605C45.0761 9.16399 46.3508 8.0555 47.8473 8.0555H51.5053C52.6138 8.0555 53.4451 9.05314 53.2234 10.1062L51.727 18.697H41.5843C37.3167 18.697 33.6587 21.7453 32.9382 25.9575L32.3839 29.2276L31.1646 35.9893L30.9429 37.1533C30.2224 41.1992 33.3261 44.8572 37.4275 44.8572H41.2518C43.9122 44.8572 46.2954 43.527 47.681 41.4209L47.293 43.6933C47.1822 44.303 47.6256 44.8018 48.2353 44.8018H54.4982C55.1633 44.8018 55.6621 44.3584 55.773 43.6933L61.9805 8.60975C62.701 4.56377 59.5972 0.90577 55.4958 0.90577L55.6067 1.01662ZM50.2305 27.7311L48.9003 35.3797C48.6232 36.8207 47.3485 37.9292 45.852 37.9292H41.7506C40.6421 37.9292 39.8108 36.9316 40.0325 35.8785L41.3626 28.2299C41.6398 26.7889 42.9145 25.6804 44.411 25.6804H48.5124C49.6209 25.6804 50.4522 26.6781 50.2305 27.7311Z" fill="white"/>
</svg>
